<?xml version="1.0" standalone="no"?>
<!DOCTYPE svg PUBLIC "-//W3C//DTD SVG 1.1//EN" "http://www.w3.org/Graphics/SVG/1.1/DTD/svg11.dtd" >
<!--
2013-9-30: Created.
-->
<svg>
<metadata>
Created by iconfont
</metadata>
<defs>

<font id="iconfont" horiz-adv-x="1024" >
  <font-face
    font-family="iconfont"
    font-weight="500"
    font-stretch="normal"
    units-per-em="1024"
    ascent="896"
    descent="-128"
  />
    <missing-glyph />
    
    <glyph glyph-name="shanchu1" unicode="&#58898;" d="M512-96C246.896-96 32 118.89599999999996 32 384 32 649.104 246.896 864 512 864 777.104 864 992 649.104 992 384 992 118.89599999999996 777.104-96 512-96ZM728.832 600.832C716.704 612.96 697.024 612.96 684.896 600.832L512.896 428.832 340.864 600.864C328.784 612.944 309.2 612.944 297.12 600.864 285.056 588.784 285.056 569.2 297.12 557.12L469.168 385.088 297.104 213.03999999999996C284.976 200.91200000000003 284.976 181.24800000000005 297.104 169.10400000000004 309.248 156.976 328.912 156.976 341.04 169.10400000000004L513.088 341.168 683.2 171.05600000000004C695.28 158.99199999999996 714.848 158.99199999999996 726.928 171.05600000000004 739.008 183.13599999999997 739.008 202.72000000000003 726.928 214.79999999999995L556.832 384.896 728.832 556.896C740.96 569.024 740.96 588.704 728.832 600.832Z"  horiz-adv-x="1024" />

    
    <glyph glyph-name="xiala1" unicode="&#58916;" d="M510.796592 109.135862c-5.270027 0-10.559497 1.072425-15.464203 3.245927l-408.995021 180.439582c-19.37528 8.537444-28.141944 31.188326-19.6045 50.564629 8.537444 19.349697 31.213909 28.14092 50.564629 19.6045l393.499096-173.58957 393.525702 173.613106c19.37528 8.537444 42.021046-0.25378 50.558489-19.6045 8.537444-19.37528-0.228197-42.022069-19.6045-50.559513L526.287401 112.407372C521.351995 110.232846 516.062526 109.135862 510.796592 109.135862L510.796592 109.135862zM510.796592 409.873274c-5.270027 0-10.559497 1.072425-15.464203 3.242857L86.337367 593.559806c-19.37528 8.537444-28.141944 31.18321-19.6045 50.559513 8.537444 19.37528 31.213909 28.14706 50.564629 19.609617l393.499096-173.593663 393.525702 173.6172c19.37528 8.537444 42.021046-0.228197 50.558489-19.6045 8.537444-19.380396-0.228197-42.027186-19.6045-50.563606l-408.988882-180.439582C521.351995 410.945699 516.062526 409.873274 510.796592 409.873274L510.796592 409.873274zM510.796592 409.873274"  horiz-adv-x="1024" />

    
    <glyph glyph-name="yuandianzhong" unicode="&#59224;" d="M480 416m-288 0a4.5 4.5 0 1 0 576 0 4.5 4.5 0 1 0-576 0Z"  horiz-adv-x="1024" />

    
    <glyph glyph-name="yuanhuan" unicode="&#59441;" d="M480 832C250.24 832 64 645.76 64 416 64 186.24 250.24 0 480 0c229.76 0 416 186.24 416 416C896 645.76 709.76 832 480 832zM480 64C285.44 64 128 221.44 128 416 128 610.56 285.44 768 480 768 674.56 768 832 610.56 832 416 832 221.44 674.56 64 480 64z"  horiz-adv-x="1024" />

    
    <glyph glyph-name="shanchu" unicode="&#58947;" d="M765.35606469 638.50584469c34.32073031-34.32073031 60.84866437-74.33616 78.92281031-118.87012594 17.48606438-43.031625 26.32934906-88.54796437 26.26027594-135.24718219 0.06523594-46.69538062-8.77421063-92.21555813-26.26411313-135.24430406-18.07414594-44.534925-44.59632375-84.55227375-78.91417594-118.86916688-34.31881219-34.31881219-74.33903813-60.84386813-118.87300406-78.91801312-43.02778688-17.4889425-88.54796437-26.32934906-135.243345-26.26411313-46.69538062-0.06523594-92.21747625 8.77325156-135.243345 26.26411313-44.534925 18.07222688-84.55515187 44.59632375-118.87588219 78.91801312-34.31689312 34.31593406-60.83907094 74.33424094-78.91225781 118.86916688-17.49086156 43.02682781-26.32934906 88.54892344-26.26411312 135.24430406-0.06811406 46.69921781 8.77421063 92.21555813 26.26027593 135.24718219 18.075105 44.53300687 44.60208 84.54939562 78.92185125 118.86916687 34.31689312 34.31689312 74.33136375 60.84290813 118.86532969 78.91705407 43.031625 17.48606438 88.54796437 26.32934906 135.24718219 26.261235 46.70017687 0.06811406 92.21555813-8.77517062 135.24814219-26.261235C691.02470094 699.34971281 731.04013063 672.82273781 765.35606469 638.50584469M807.78617656 680.9359575C644.02808469 844.69404938 378.46093906 844.69404938 214.70284719 680.93499844 50.93995906 517.17210937 50.93899906 251.60592281000004 214.69709094 87.84783094c163.76384813-163.76384813 429.33003469-163.76192906 593.09292281 0C971.54906563 251.60592281000004 971.54906563 517.17210937 807.78617656 680.9359575L807.78617656 680.9359575 807.78617656 680.9359575zM554.30875437 382.60606499999994L703.94138375 532.23773438l-42.39653531 42.39749437L511.91221906 425.00260031 362.71513531 574.198725l-42.5106975-42.5106975 149.19612469-149.19708469L322.34186844 235.43224874999999l42.37638843-42.37638844 147.05965313 147.05965313 147.52397906-147.52206 42.500145 42.500145L554.30875437 382.60606499999994zM701.8116275 235.10223281000003"  horiz-adv-x="1024" />

    
    <glyph glyph-name="xiazai" unicode="&#58896;" d="M1064.064-83.072a44.736 44.736 0 0 0-44.672-44.736H86.144a44.736 44.736 0 1 0 0 89.472h933.248c24.704 0 44.672-20.032 44.672-44.736zM552.704 43.13599999999997a44.736 44.736 0 0 0-44.736 44.736V850.752a44.736 44.736 0 0 0 89.344 0v-762.88a44.736 44.736 0 0 0-44.608-44.8zM584.32 56.511999999999944a44.672 44.672 0 0 0-63.232 0l-335.36 335.744a44.672 44.672 0 1 0 63.168 63.296l335.36-335.744a44.8 44.8 0 0 0 0-63.36zM521.088 56.511999999999944a44.8 44.8 0 0 0 0 63.296l335.36 335.744a44.8 44.8 0 0 0 63.168-63.296l-335.36-335.744a44.608 44.608 0 0 0-63.168 0z"  horiz-adv-x="1088" />

    
    <glyph glyph-name="duigou" unicode="&#59061;" d="M966.38293333 714.10725925c-15.53445925 15.53445925-38.83614815 15.53445925-54.37060741 0L333.35371852 135.44865185000003l-221.36604444 221.36604445c-15.53445925 15.53445925-38.83614815 15.53445925-54.37060741 0-15.53445925-15.53445925-15.53445925-38.83614815 0-54.37060741l248.55134815-248.55134814c7.76722963-7.76722963 15.53445925-11.65084445 27.1853037-11.65084445 11.65084445 0 19.41807408 3.88361482 27.1853037 11.65084445L966.38293333 659.73665185c15.53445925 15.53445925 15.53445925 38.83614815 0 54.3706074Z"  horiz-adv-x="1024" />

    
    <glyph glyph-name="chenggong" unicode="&#58894;" d="M508.212 831.92c-249.054 0-446.808-200.648-446.808-448.038 0-247.388 200.559-448.037 447.95-448.037 247.388 0 448.036 200.56 448.036 448.037 0.008 247.39-200.207 448.038-449.178 448.038z m286.244-327.193S521.455 215.85199999999998 486.554 180.95299999999997c-24.734-24.734-55.422-16.226-68.406-3.33l-194.945 178.55c-17.98 18.85-17.98 49.46 0 68.311 17.98 18.857 47.004 18.857 64.982 0l161.451-145.048c0 0.265 279.832 293.603 279.832 293.603 17.979 18.856 47.006 18.856 64.988 0 17.975-18.855 17.975-49.456 0-68.312z m0 0"  horiz-adv-x="1024" />

    
    <glyph glyph-name="chakan" unicode="&#58880;" d="M747.7 607.8c0 17.6-14.4 32.1-32.1 32.1H306.4c-17.6 0-32.1-14.4-32.1-32.1 0-17.6 14.4-32.1 32.1-32.1h409.2c17.7 0 32.1 14.5 32.1 32.1ZM306.4 448c-17.6 0-32.1-14.4-32.1-32.1 0-17.6 14.4-32.1 32.1-32.1h191.1c17.7 0 32.2 14.4 32.1 32.1 0 17.6-14.4 32.1-32.1 32.1H306.4ZM766.6 119.20000000000005c-2.1 2.1-4.4 3.9-6.9 5.2 18.1 25.8 28.7 57.1 28.7 90.9 0 88.2-72.4 159.6-161.7 159.6S465 303.5 465 215.29999999999995s72.4-159.6 161.7-159.6c32.7 0 63.2 9.6 88.7 26.1 1.5-2.9 3.4-5.6 5.8-8l83.3-83.3c12.5-12.5 32.9-12.5 45.4 0s12.5 32.9 0 45.4l-83.3 83.3Zm-139.9-0.6c-54.1 0-98 43.3-98 96.7s43.9 96.7 98 96.7 98-43.3 98-96.7c0-53.4-43.8-96.7-98-96.7ZM577.6 0.6000000000000227H221.2c-35.2 0-64 28.8-64 64V703.2c0 35.2 28.8 64 64 64h547.3c35.2 0 64-28.8 64-64v-318.4h0.3v-0.1c0-17.7 14.4-32.1 32.2-32.1s32.2 14.4 32.2 32.1c0 1.2-0.1 2.3-0.2 3.5v316c0 70.4-27.6 128-98 128H225c-70.4 0-128-57.6-128-128v-639.8c0-70.4 57.6-128 128-128h352.2c17.8 0 32.2 14.4 32.2 32.1 0 17.6-14.2 31.9-31.8 32.1ZM832.7 256.70000000000005a32.2 32.099999999999994 0 1 1 64.4 0 32.2 32.099999999999994 0 1 1-64.4 0Z"  horiz-adv-x="1024" />

    
    <glyph glyph-name="cuowutishi" unicode="&#58908;" d="M512-128C230.4-128 0 102.39999999999998 0 384S230.4 896 512 896s512-230.4 512-512-230.4-512-512-512z m0 954.514286C266.971429 826.514286 69.485714 629.028571 69.485714 384S266.971429-58.51428599999997 512-58.51428599999997 954.514286 138.97142899999994 954.514286 384 757.028571 826.514286 512 826.514286z m0-749.714286c-36.571429 0-69.485714 29.257143-69.485714 69.485714 0 36.571429 29.257143 69.485714 69.485714 69.485715s69.485714-29.257143 69.485714-69.485715c0-40.228571-32.914286-69.485714-69.485714-69.485714z m0 204.8c-18.285714 0-32.914286 29.257143-32.914286 69.485714l-32.914285 307.2c0 36.571429 29.257143 69.485714 69.485714 69.485715s69.485714-29.257143 69.485714-69.485715l-32.914286-307.2c-7.314286-40.228571-21.942857-69.485714-40.228571-69.485714z"  horiz-adv-x="1024" />

    
    <glyph glyph-name="fuzhi" unicode="&#58959;" d="M703.3 703.1H128C59.7 703.1 3.8 649.5 0.4 582c-0.1-2.2-0.2-4.4-0.2-6.6v-575.2c0-2.2 0.1-4.4 0.2-6.6 3.5-67.5 59.3-121.2 127.7-121.2h575.2c70.6 0 127.8 57.2 127.8 127.8V575.3c0 70.6-57.3 127.8-127.8 127.8z m63.9-703c0-35.3-28.6-63.9-63.9-63.9H128c-35.2 0-63.9 28.6-63.9 63.9V575.3c0 35.3 28.7 63.9 63.9 63.9h575.2c35.3 0 63.9-28.6 63.9-63.9v-575.2zM895 894.9H324.1V831H895c35.3 0 63.9-28.6 63.9-63.9V187h63.9V767.1c0 70.6-57.2 127.8-127.8 127.8z"  horiz-adv-x="1024" />

    
    <glyph glyph-name="huiyishiqueren_huabanfuben" unicode="&#58904;" d="M908.85365253 884.44301632H114.06929162a96.1341381 96.1341381 0 0 1-96.12032969-96.12032969v-794.78436093a96.1203297 96.1203297 0 0 1 96.12032969-96.10652129H908.85365253a96.10652128 96.10652128 0 0 1 96.1065213 96.10652129V788.32268663a96.1203297 96.1203297 0 0 1-96.1065213 96.12032969z m-56.9044503-339.53494999l-383.87374881-383.8737488a53.65947439 53.65947439 0 0 0-75.94624527 0L170.9323167 382.02408286a53.74232483 53.74232483 0 0 0 75.94624527 75.94624525l183.14091837-183.03045108 345.94205139 345.9558598a53.72851643 53.72851643 0 1 0 75.94624527-75.94624526z"  horiz-adv-x="1024" />

    
    <glyph glyph-name="icon_loading" unicode="&#60288;" d="M480 800a32 32 0 0 0 64 0v-192a32 32 0 0 0-64 0V800Zm250.624-60.64a32 32 0 1 0 51.776-37.632l-112.832-155.328a32 32 0 0 0-51.808 37.632l112.864 155.328Zm167.136-196.384a32 32 0 1 0 19.776-60.864l-182.624-59.328a32 32 0 0 0-19.776 60.864l182.624 59.328Zm19.776-257.088a32 32 0 1 0-19.776-60.864l-182.624 59.328a32 32 0 0 0 19.776 60.864l182.624-59.328ZM782.4 66.24000000000001a32 32 0 0 0-51.776-37.632l-112.864 155.328a32 32 0 1 0 51.808 37.632l112.832-155.328ZM544-32a32 32 0 0 0-64 0v192a32 32 0 0 0 64 0v-192Zm-250.624 60.64a32 32 0 0 0-51.776 37.632l112.832 155.328a32 32 0 0 0 51.808-37.632l-112.864-155.328Zm-167.136 196.384a32 32 0 1 0-19.776 60.864l182.624 59.328a32 32 0 0 0 19.776-60.864l-182.624-59.328Zm-19.776 257.088a32 32 0 0 0 19.776 60.864l182.624-59.328a32 32 0 1 0-19.776-60.864l-182.624 59.328ZM241.6 701.76a32 32 0 1 0 51.776 37.632l112.864-155.328a32 32 0 1 0-51.808-37.632L241.6 701.76Z"  horiz-adv-x="1024" />

    
    <glyph glyph-name="weigouxuan" unicode="&#58937;" d="M888.4 895.4H134.49999999C61 895.4 0.39999999 834.7000000099999 0.39999999 761.2v-753.8c0-73.50000001 60.70000001-134.09999999 134.20000001-134.10000001h753.90000001c73.50000001 0 134.2 60.70000001 134.2 134.10000001V761.2C1022.6 834.7000000099999 961.90000001 895.4 888.4 895.4z m70.30000001-888c0-38.30000001-31.90000001-70.30000001-70.30000001-70.30000001H134.49999999c-38.30000001 0-70.30000001 31.90000001-70.29999999 70.30000001V761.2c0 38.30000001 31.90000001 70.30000001 70.30000001 70.30000001h753.89999999c38.30000001 0 70.30000001-31.90000001 70.30000001-70.30000001v-753.8z m0 0"  horiz-adv-x="1024" />

    
    <glyph glyph-name="guanbi" unicode="&#59094;" d="M800 64c-8 0-16 3.2-22.4 9.6l-576 576c-12.8 12.8-12.8 32 0 44.8 12.8 12.8 32 12.8 44.8 0l576-576c12.8-12.8 12.8-32 0-44.8-6.4-6.4-14.4-9.6-22.4-9.6z m-576 0c-8 0-16 3.2-22.4 9.6-12.8 12.8-12.8 32 0 44.8l576 576c12.8 12.8 32 12.8 44.8 0 12.8-12.8 12.8-32 0-44.8l-576-576C240 67.2 232 64 224 64z"  horiz-adv-x="1024" />

    
    <glyph glyph-name="xinzeng" unicode="&#58882;" d="M911.375 339c-22.5 0-45-22.5-45-45v-270H157.625V738.375h270c11.25 0 22.5 5.625 33.75 11.25 5.625 5.625 11.25 22.5 11.25 33.75 0 11.25-5.625 22.5-11.25 33.75-16.875 5.625-28.125 11.25-39.375 11.25H157.625C107 828.375 67.625 789 67.625 738.375v-714.375c0-50.625 39.375-90 90-90h714.375c50.625 0 90 39.375 90 90V294c0 11.25-5.625 22.5-11.25 33.75-16.875 5.625-28.125 11.25-39.375 11.25z m-354.375 225h135v-135c0-11.25 5.625-22.5 11.25-33.75 5.625-5.625 22.5-11.25 33.75-11.25s22.5 5.625 33.75 11.25c5.625 5.625 11.25 22.5 11.25 33.75V564h135c11.25 0 22.5 5.625 33.75 11.25 5.625 5.625 11.25 22.5 11.25 33.75 0 22.5-22.5 45-45 45h-135V783.375c0 11.25-5.625 22.5-11.25 33.75-5.625 5.625-22.5 11.25-33.75 11.25-22.5 0-45-22.5-45-45v-135H557c-11.25 0-22.5-5.625-33.75-11.25-5.625-5.625-11.25-16.875-11.25-28.125s5.625-22.5 11.25-33.75c11.25-5.625 22.5-11.25 33.75-11.25z"  horiz-adv-x="1024" />

    
    <glyph glyph-name="chexiao" unicode="&#59068;" d="M597.36376953 626.12097168h-351.8371582l105.63354492 105.71594238c8.40454102 8.40454102 11.70043945 20.6817627 8.6517334 32.21740723-3.04870606 11.53564453-12.11242676 20.51696778-23.56567383 23.56567383-11.53564453 3.04870606-23.81286622-0.24719239-32.21740723-8.65173341L162.22277832 637.07983398c-12.44201661-12.35961914-19.28100586-29.00390625-19.36340332-46.71936036-0.16479492-17.71545411 6.83898926-34.68933106 19.36340333-47.21374511l141.88842772-141.88842773c6.26220703-6.26220703 14.74914551-9.80529786 23.56567384-9.80529786s17.3034668 3.54309083 23.56567383 9.80529785c6.26220703 6.26220703 9.80529786 14.74914551 9.80529784 23.56567383 0 8.81652833-3.54309083 17.3034668-9.80529784 23.56567383l-111.23657228 110.98937989h357.44018556c119.72351075 0 217.11730958-97.22900391 217.11730956-216.78771973S717.08728028 125.96838377999995 597.36376953 125.96838377999995H364.59094238c-18.37463379 0-33.37097168-14.91394043-33.37097168-33.37097168 0-18.37463379 14.91394043-33.37097168 33.37097169-33.37097167h232.77282714c156.47277833 0 283.77685547 127.13928223 283.77685547 283.44726561s-127.30407715 283.52966309-283.77685547 283.44726564"  horiz-adv-x="1024" />

    
    <glyph glyph-name="bianji" unicode="&#58906;" d="M291.11272719 120.13090875a32.29090875 32.29090875 0 0 0-36 7.06909125 32.37818156 32.37818156 0 0 0-6.98181844 35.91272719l102.10909125 240.74181843a32.72727281 32.72727281 0 0 0 6.93818156 10.42909032L763.34545437 820.53818156a73.87636406 73.87636406 0 0 0 104.29090969 0.17454563l81.16363594-81.12a73.87636406 73.87636406 0 0 0-0.26181844-104.29090875l-406.21090875-406.25454563a33.86181844 33.86181844 0 0 0-10.42909125-6.98181843l-240.87272719-101.93454563z m642.24-120.65454469a36.78545438 36.78545438 0 1 0 0-73.6581825H90.64727281a36.78545438 36.78545438 0 1 0 0 73.6581825h842.70545438zM815.44727281 768.43636406L752 705.0327271900001l80.98909125-80.98909125 63.40363594 63.40363687 0.21818156 0.21818157-80.98909031 80.98909125-0.2181825-0.21818157z m-400.58181844-400.58181844l-59.56363593-140.50909125 140.50909031 59.47636407 285.16363688 285.16363594-80.98909126 80.98909124-285.16363593-285.12z"  horiz-adv-x="1024" />

    
    <glyph glyph-name="caozuo" unicode="&#58960;" d="M333.44 695.6800000000001a32 32 0 0 0 32 32h624a32 32 0 0 0 32-32 32 32 0 0 0-32-32H365.44a32 32 0 0 0-32 32z m656-289.92H365.44a32 32 0 0 1 0-64h624a32 32 0 0 1 0 64z m0-320H365.44a32 32 0 0 1-32-32 32 32 0 0 1 32-32h624a32 32 0 0 1 32 32 32 32 0 0 1-32 30.08zM236.8 781.44v-170.88a32 32 0 0 0-32-32H34.56a32 32 0 0 0-32 32V781.44a32 32 0 0 0 32 32H204.8a32 32 0 0 0 32-32z m-64-32H64V640h108.8z m64-290.56v-170.24a32 32 0 0 0-32-32H34.56a32 32 0 0 0-32 32V458.88a32 32 0 0 0 32 32H204.8a32 32 0 0 0 32-32z m-64-32H64V320h108.8z m10.24-309.76l-81.28-77.44-42.88 49.92a32.64 32.64 0 0 1-45.44 0 31.36 31.36 0 0 1 0-44.8l64-75.52a32 32 0 0 1 23.04-11.52 32 32 0 0 1 22.4 8.96l105.6 101.12a30.72 30.72 0 0 1 0 44.8 31.36 31.36 0 0 1-45.44 4.48z"  horiz-adv-x="1024" />

    
    <glyph glyph-name="shanchu3" unicode="&#58888;" d="M519.669429 896c-104.534771 0-189.591705-82.942197-193.175627-186.875937H82.586757A49.195452 49.195452 0 0 1 33.391304 659.973131a49.195452 49.195452 0 0 1 49.195453-49.150931h54.315341v-550.900024C136.902098-43.49957600000005 207.111354-127.97774000000004 293.704254-127.97774000000004h441.690572c86.5929 0 156.802156 83.966175 156.802156 187.899916V610.310211h49.195453A49.195452 49.195452 0 0 1 990.587887 659.461142a49.195452 49.195452 0 0 1-49.195452 49.150932H712.333066A192.663638 192.663638 0 0 1 519.691689 896zM411.81786 717.916915c3.561662 50.063607 46.902633 89.041543 100.4166 89.041542C565.770687 806.958457 609.111658 767.9805220000001 612.161331 717.916915h-200.343471z m-112.637551-756.341123c-31.16454 0-65.445534 39.356362-65.445534 95.586096V606.6149869999999h578.770027v-549.965088C812.504802 0.42016499999999724 778.223808-38.93619699999999 747.059268-38.93619699999999H299.180309v0.511989zM367.297089 94.62611700000002c24.486424 0 44.520771 21.815178 44.520771 49.106411V423.946262C411.81786 451.237495 391.783513 473.052673 367.297089 473.052673s-44.520771-21.815178-44.520771-49.106411v-280.213734C322.776318 116.44129499999997 342.254155 94.62611700000002 367.297089 94.62611700000002z m155.8227 0c24.486424 0 44.520771 21.815178 44.520771 49.106411V423.946262C567.64056 451.237495 547.606213 473.052673 523.119789 473.052673s-44.520771-21.815178-44.520772-49.106411v-280.213734C478.599017 116.44129499999997 498.633364 94.62611700000002 523.119789 94.62611700000002z m133.562313 0c24.486424 0 44.520771 21.815178 44.520772 49.106411V423.946262C701.202874 451.237495 681.168527 473.052673 656.682102 473.052673s-44.520771-21.815178-44.520771-49.106411v-280.213734C612.161331 116.44129499999997 631.639169 94.62611700000002 656.682102 94.62611700000002z"  horiz-adv-x="1024" />

    
    <glyph glyph-name="wenjian1" unicode="&#58885;" d="M1072.772052 35.352070000000026a73.142718 73.142718 0 0 0-72.167482-74.117954H158.975697a73.142718 73.142718 0 0 0-72.167481 74.117954V643.899482h911.845882A73.630336 73.630336 0 0 0 1072.772052 569.29391zM86.808216 792.13539a14.140925 14.140925 0 0 0 14.628543 14.628544h379.366897a13.165689 13.165689 0 0 0 12.190453-7.314272l38.521831-66.803682H86.808216z m911.845882-59.48941H633.915745l-64.365592 112.152167A101.424569 101.424569 0 0 1 480.803656 895.99805H101.436759A102.887423 102.887423 0 0 1 0.01219 792.13539v-756.78332A161.401597 161.401597 0 0 1 158.975697-128h839.678401a161.401597 161.401597 0 0 1 158.963507 163.35207V569.29391a161.401597 161.401597 0 0 1-158.963507 163.35207z"  horiz-adv-x="1157" />

    
    <glyph glyph-name="xiala1-copy" unicode="&#58887;" d="M560.42876573 118.74325824000005c-14.01356371-14.01356371-33.0319716-27.0261586-51.04941067-23.02228327-18.01743904-3.00290651-35.03390928 11.01065722-49.04747302 23.02228327L26.91237567 554.1647022899999c-22.02131441 22.02131441-22.02131441 58.05619254 0 80.07750691s58.05619254 22.02131441 80.07750694 0l403.39044131-414.40109847L914.77173399 634.2422091999999c22.02131441 22.02131441 58.05619254 22.02131441 80.07750693 0s22.02131441-58.05619254 0-80.07750691l-434.42047519-435.42144405z"  horiz-adv-x="1024" />

    
    <glyph glyph-name="elastic" unicode="&#58956;" d="M972.117902 318.57777799999997H378.197902A60.302222 60.302222 0 0 0 326.429013 384a60.302222 60.302222 0 0 0 51.768889 65.422222h593.92A60.302222 60.302222 0 0 0 1024.45568 384a60.302222 60.302222 0 0 0-52.337778-65.422222zM967.566791 765.1555559999999H57.344569a61.44 61.44 0 0 0-56.888889 65.422222A61.44 61.44 0 0 0 57.344569 896h910.222222a61.44 61.44 0 0 0 56.888889-65.422222 61.44 61.44 0 0 0-56.888889-65.422222zM261.006791 166.11555599999997L0.45568 384l260.551111 217.884444zM57.344569 2.844443999999953h910.222222a65.991111 65.991111 0 0 0 0-130.844444H57.344569a65.991111 65.991111 0 0 0 0 130.844444z"  horiz-adv-x="1024" />

    
    <glyph glyph-name="quesheng1" unicode="&#58964;" d="M891.345455 514.327273c11.636364-20.945455-13.963636 34.909091-55.854546 34.909091H186.181818c-23.272727 0-41.890909-11.636364-55.854545-34.909091-11.636364-20.945455-130.327273-204.8-130.327273-242.036364v-249.018182c0-39.563636 32.581818-69.818182 69.818182-69.818182h884.363636c39.563636 0 69.818182 30.254545 69.818182 69.818182V272.290909c0 37.236364-132.654545 242.036364-132.654545 242.036364s-18.618182 34.909091 0 0z m-232.727273-223.418182c-16.290909 0-30.254545-9.309091-32.581818-25.6v-4.654546c0-62.836364-51.2-114.036364-114.036364-114.036363s-116.363636 51.2-116.363636 114.036363V267.636364c-9.309091 23.272727-32.581818 23.272727-32.581819 23.272727h-302.545454L162.909091 479.418182s18.618182 34.909091 44.218182 32.581818h612.072727c20.945455 0 25.6-6.981818 39.563636-32.581818l104.727273-188.509091H658.618182zM290.909091 649.309091L211.781818 723.781818c-9.309091 6.981818-9.309091 20.945455 0 30.254546 6.981818 9.309091 20.945455 9.309091 30.254546 0l79.127272-74.472728c9.309091-6.981818 9.309091-20.945455 0-30.254545-9.309091-6.981818-20.945455-9.309091-30.254545 0z m214.109091 32.581818c-4.654545 4.654545-6.981818 9.309091-6.981818 13.963636L495.709091 802.909091c0 11.636364 9.309091 20.945455 20.945454 20.945454s20.945455-9.309091 20.945455-20.945454l2.327273-107.054546c0-11.636364-9.309091-20.945455-20.945455-20.945454-4.654545 0-9.309091 2.327273-13.963636 6.981818z m202.472727-27.927273c-9.309091 6.981818-9.309091 20.945455 0 30.254546l74.472727 79.127273c6.981818 9.309091 20.945455 9.309091 30.254546 0s9.309091-20.945455 0-30.254546l-74.472727-79.127273c-6.981818-9.309091-20.945455-9.309091-30.254546 0z"  horiz-adv-x="1024" />

    
    <glyph glyph-name="gaojisousuo" unicode="&#59027;" d="M118 655.7h792.6c25.6 0 46.6 20.3 46.6 45.1s-21 45.1-46.6 45.1H118c-25.6 0-46.6-20.3-46.6-45.1s21-45.1 46.6-45.1z m0-210.7h139.9c25.6 0 46.6 20.3 46.6 45.1s-21 45.1-46.6 45.1H118c-25.6 0-46.6-20.3-46.6-45.1S92.4 445 118 445z m828.9-344.5l-129.1 125c35.5 41.2 56.9 94.1 56.9 152 0 130.9-109.6 237-244.8 237-135.1 0-244.7-106.1-244.7-237S494.8 140.39999999999998 630 140.39999999999998c41.6 0 80.8 10.1 115.1 27.8L881 36.700000000000045c18.1-17.5 47.8-17.5 65.9 0 18.1 17.6 18.1 46.3 0 63.8z m-317 111.1c-94.6 0-171.3 74.3-171.3 165.9 0 91.6 76.7 165.9 171.3 165.9s171.4-74.2 171.4-165.9c0-91.6-76.7-165.9-171.4-165.9z m-162.3-97.8H118c-25.6 0-46.6-20.3-46.6-45.1s21-45.1 46.6-45.1h349.6c25.7 0 46.7 20.3 46.6 45.1 0 24.8-21 45.1-46.6 45.1zM118 234.29999999999995h139.9c25.6 0 46.6 20.3 46.6 45.1s-21 45.1-46.6 45.1H118c-25.6 0-46.6-20.3-46.6-45.1s21-45.1 46.6-45.1z"  horiz-adv-x="1024" />

    
    <glyph glyph-name="anniu-shuaxin" unicode="&#58886;" d="M755.356 216.82799999999997c-54.336-72.836-143.059-120.391-243.23-120.391-164.395 0-298.23 128.059-299.23 285.895h97.672l-155.45 148.785L0 382.332h97.836c0.945-219.172 186.063-396.566 414.289-396.566 132.172 0 249.785 59.559 325.676 152.172l-82.445 78.89zM960.028 381.89l-0.113-0.059h-33.5v0.059c0 0.664 0.055 1.387 0.055 2.109 0 219.949-185.504 398.234-414.344 398.234-133.227 0-251.727-60.559-327.453-154.449l82.445-79.004c54.172 74.227 143.785 122.84 245.008 122.84 165.004 0 299.23-129.004 299.23-287.621 0-0.723-0.055-1.445-0.055-2.109v-0.059h-36.445l-0.055 0.059h-61.336L868.86 233.04999999999995l155.168 148.84h-64z"  horiz-adv-x="1024" />

    
    <glyph glyph-name="sousuokuang-shijianbiao" unicode="&#58884;" d="M1589.71991127 896.9149816h-38.69516344v-130.15645583h-154.78065048v130.15645583h-376.3984019v-130.15645583h-154.78065054v130.15645583h-38.69516021c-71.2342782 0-129.27702171-58.04274351-129.27702171-129.27701847v-763.35002664c0-71.2342782 58.04274351-129.27702171 129.27702171-129.27702163h763.35002657c71.2342782 0 129.27702171 58.04274351 129.2770185 129.27702163v763.35002664c0 71.41016242-58.04274351 129.27702171-129.2770185 129.27701847z m104.65282388-892.62704511c0-57.69096859-46.96185532-104.65282711-104.65282388-104.65282706h-763.35002657c-57.69096859 0-104.65282711 46.96185532-104.65282709 104.65282712v583.94518153h972.47979009v-583.94518153z"  horiz-adv-x="5012" />

    
    <glyph glyph-name="shangla1" unicode="&#60540;" d="M513.203408 658.864138c5.270027 0 10.55949699-1.072425 15.464203-3.245927l408.995021-180.439582c19.37528-8.537444 28.141944-31.188326 19.6045-50.564629-8.537444-19.349697-31.213909-28.14092-50.564629-19.6045l-393.499096 173.58957-393.525702-173.613106c-19.37528-8.537444-42.021046 0.25378-50.558489 19.6045-8.537444 19.37528 0.22819701 42.022069 19.6045 50.559513L497.712599 655.592628C502.648005 657.767154 507.937474 658.864138 513.203408 658.864138L513.203408 658.864138zM513.203408 358.12672599999996c5.270027 0 10.55949699-1.072425 15.464203-3.242857L937.662633 174.44019400000002c19.37528-8.537444 28.141944-31.18321 19.6045-50.559513-8.537444-19.37528-31.213909-28.14706-50.564629-19.609617l-393.499096 173.593663-393.525702-173.6172c-19.37528-8.537444-42.021046 0.22819701-50.558489 19.6045-8.537444 19.380396 0.228197 42.027186 19.6045 50.563606l408.988882 180.439582C502.648005 357.054301 507.937474 358.12672599999996 513.203408 358.12672599999996L513.203408 358.12672599999996zM513.203408 358.12672599999996"  horiz-adv-x="1024" />

    
    <glyph glyph-name="daoru" unicode="&#58917;" d="M765.6 784.6c-12 6.9-26.8 6.9-38.8 0-0.1-0.1-0.3-0.2-0.4-0.2-33.8-19.6-65.2-43.7-93.8-72.2-86-86-133.2-200.2-133.2-321.8 0-10.7 0.4-21.4 1.2-31.8L414 445.2c-15.1 15.1-39.8 15.1-55 0-15.1-15.1-15.1-39.8 0-55l164.9-164.9c15.1-15.1 39.8-15.1 55 0l164.9 164.9c15 15.1 15 39.8-0.4 55-15.1 15.1-39.8 15.1-55 0L580.7 337.4c-2.5 17.3-3.7 35-3.7 53 0 139.2 75.9 261.2 188.4 326.6l-0.1 0.2c0.1 0.1 0.2 0.1 0.3 0.2 12 6.9 19.4 19.8 19.4 33.6s-7.4 26.7-19.4 33.6zM873.8 344.4c-20.5 0-41-20.5-41-41v-245.8H187.7V707.9h245.8c10.2 0 20.5 5.1 30.7 10.2 5.1 5.1 10.2 20.5 10.2 30.7s-5.1 20.5-10.2 30.7c-15.4 5.1-25.6 10.2-35.8 10.2H187.7c-46.1 0-81.9-35.8-81.9-81.9v-650.2c0-46.1 35.8-81.9 81.9-81.9H838c46.1 0 81.9 35.8 81.9 81.9V303.4c0 10.2-5.1 20.5-10.2 30.7-15.4 5.1-25.7 10.3-35.9 10.3z"  horiz-adv-x="1024" />

    
    <glyph glyph-name="daochu" unicode="&#58918;" d="M499.1 224.60000000000002c12.4-7.2 27.6-7.2 39.9 0 0.1 0.1 0.3 0.2 0.4 0.2 34.8 20.5 67.1 45.6 96.5 75.3 88.5 89.7 137 208.8 137 335.5 0 11.1-0.4 22.3-1.2 33.2l89.1-90.3c15.6-15.8 40.9-15.8 56.5 0 15.6 15.8 15.6 41.5 0 57.3l-169.5 172a39.599 39.599 0 0 1-56.5 0L521.7 635.9c-15.4-15.8-15.4-41.5 0.4-57.3 15.6-15.8 40.9-15.8 56.5 0L689.2 691c2.6-18 3.8-36.4 3.8-55.3 0-145.2-78.1-272.4-193.7-340.6l0.1-0.2c-0.1-0.1-0.2-0.1-0.3-0.2-12.4-7.2-20-20.6-20-35.1s7.7-27.7 20-35zM881.6 355.20000000000005c-21.1 0-42.1-21.4-42.1-42.7v-256.3H176V734.3h252.8c10.5 0 21.1 5.3 31.6 10.7 5.3 5.3 10.5 21.4 10.5 32 0 10.7-5.3 21.4-10.5 32-15.8 5.3-26.3 10.7-36.9 10.7H176c-47.4 0-84.3-37.4-84.3-85.4v-678.1c0-48.1 36.9-85.4 84.3-85.4h668.8c47.4 0 84.3 37.4 84.3 85.4V312.5c0 10.7-5.3 21.4-10.5 32-15.9 5.3-26.5 10.7-37 10.7z"  horiz-adv-x="1024" />

    
    <glyph glyph-name="fanhui1-copy" unicode="&#60541;" d="M202.666667-46.57493299999999c3.438933 21.930667 17.322667 36.625067 33.092266 50.986666C371.19999999 127.78666699999997 506.282667 251.55413299999998 641.450667 375.2192c4.488533 4.113067 8.942933 8.277333 14.071466 13.04746699l-41.2416 37.73440001c-125.8752 115.131733-251.648 230.365867-377.762133 345.250133-16.1792 14.754133-30.890667 29.6704-33.860267 52.565333l-1e-8 6.152534c3.370667 14.446933 8.490667 27.912533 19.88266701 38.2976 26.205867 23.901867 67.089067 22.997333 94.813867-2.363734 154.1376-140.93653301 308.181333-281.97546699 462.464-422.7584 14.25919999-13.013333 27.690667-26.103467 33.152-45.320533l0-18.432c-4.855467-18.645333-17.297067-31.6672-31.121067-44.279467A271464.302933 271464.302933 0 0 1 336.512-72.10666700000002c-17.8432-16.3584-34.858667-33.5616-60.1088-37.956266l-14.344533 0c-2.542933 0.7424-5.0432 1.646933-7.6288 2.210133-18.346667 4.0192-33.467733 13.149867-42.666667 29.7216-4.309333 7.765333-6.144 16.896-9.096533 25.412267l0 6.144z"  horiz-adv-x="1024" />

    
    <glyph glyph-name="tishi1" unicode="&#58941;" d="M0 384a512 512 0 1 1 1024 0A512 512 0 1 1 0 384zM509.457 730.839a66.065 66.065 0 0 0 66.064-66.065v-297.29a66.065 66.065 0 1 0-132.129 0v297.29a66.065 66.065 0 0 0 66.065 66.065zM512 37.16a82.58 82.58 0 1 0 0 165.162 82.58 82.58 0 0 0 0-165.162z"  horiz-adv-x="1024" />

    
    <glyph glyph-name="jianyitiao" unicode="&#58938;" d="M704 422.766H320c-19.237 0-32.037-20.773-32.037-36.791 0-16.018 12.8-38.766 32.037-38.766h384c19.163 0 32.037 19.602 32.037 38.766 0 13.385-12.874 36.79-32.037 36.79zM896 896H128C57.563 896 0 838.437 0 768v-768c0-70.437 57.563-128 128-128h768c70.437 0 128 57.563 128 128V768c0 70.437-57.563 128-128 128z m59.758-893.074a64.22 64.22 0 0 0-64-64H132.535a64.22 64.22 0 0 0-63.927 64v757.98c0 35.18 28.745 64 64 64h759.223c35.108 0 63.927-28.82 63.927-64v-757.98z"  horiz-adv-x="1024" />

    
    <glyph glyph-name="jiayitiao" unicode="&#58939;" d="M716.8 413.6H541.6V588.8c0 16-12.8 29.6-29.6 29.6-16 0-29.6-12.8-29.6-29.6v-175.2H307.2c-16 0-29.6-12.8-29.6-29.6 0-16 12.8-29.6 29.6-29.6h175.2v-175.2c0-16 12.8-29.6 29.6-29.6 16 0 29.6 12.8 29.6 29.6V354.4h175.2c16 0 29.6 12.8 29.6 29.6 0 16-13.6 29.6-29.6 29.6zM833.6 852H190.4C109.6 852 44 786.4 44 705.6v-643.2C44-18.4 109.6-84 190.4-84h643.2c80.8 0 146.4 65.6 146.4 146.4V705.6C980 786.4 914.4 852 833.6 852z m88-789.6c0-48.8-39.2-88-88-88H190.4c-48.8 0-88 39.2-88 88V705.6c0 48.8 39.2 88 88 88h643.2c48.8 0 88-39.2 88-88v-643.2z"  horiz-adv-x="1024" />

    


  </font>
</defs>
</svg>
